<?xml version="1.0" encoding="UTF-8" standalone="no"?>
<!DOCTYPE svg PUBLIC "-//W3C//DTD SVG 1.1//EN"
 "http://www.w3.org/Graphics/SVG/1.1/DTD/svg11.dtd">
<!-- Generated by graphviz version 14.0.5 (0)
 -->
<!-- Title: G Pages: 1 -->
<svg width="536pt" height="891pt"
 viewBox="0.00 0.00 536.00 891.00" xmlns="http://www.w3.org/2000/svg" xmlns:xlink="http://www.w3.org/1999/xlink">
<g id="graph0" class="graph" transform="scale(1 1) rotate(0) translate(4 886.6)">
<title>G</title><style>.edge>path:hover{stroke-width:8}</style>
<polygon fill="white" stroke="none" points="-4,4 -4,-886.6 532.03,-886.6 532.03,4 -4,4"/>
<!-- numpy -->
<g id="node1" class="node">
<title>numpy</title><style>.edge>path:hover{stroke-width:8}</style>
<ellipse fill="#f90606" stroke="black" cx="422.6" cy="-864.6" rx="30.44" ry="18"/>
<text xml:space="preserve" text-anchor="middle" x="422.6" y="-861.48" font-family="Helvetica,sans-Serif" font-size="10.00" fill="#ffffff">numpy</text>
</g>
<!-- smef_core_ir_coeffs -->
<g id="node4" class="node">
<title>smef_core_ir_coeffs</title><style>.edge>path:hover{stroke-width:8}</style>
<ellipse fill="#4c4cb3" stroke="black" cx="474.6" cy="-593.47" rx="32.53" ry="41.72"/>
<text xml:space="preserve" text-anchor="middle" x="474.6" y="-609.47" font-family="Helvetica,sans-Serif" font-size="10.00" fill="#ffffff">smef.</text>
<text xml:space="preserve" text-anchor="middle" x="474.6" y="-596.72" font-family="Helvetica,sans-Serif" font-size="10.00" fill="#ffffff">core.</text>
<text xml:space="preserve" text-anchor="middle" x="474.6" y="-583.97" font-family="Helvetica,sans-Serif" font-size="10.00" fill="#ffffff">ir.</text>
<text xml:space="preserve" text-anchor="middle" x="474.6" y="-571.22" font-family="Helvetica,sans-Serif" font-size="10.00" fill="#ffffff">coeffs</text>
</g>
<!-- numpy&#45;&gt;smef_core_ir_coeffs -->
<g id="edge1" class="edge">
<title>numpy&#45;&gt;smef_core_ir_coeffs</title><style>.edge>path:hover{stroke-width:8}</style>
<path fill="none" stroke="black" d="M383.6,-702.9C378.25,-694.96 413.14,-656.5 441.26,-627.63"/>
<polygon fill="#f90606" stroke="black" points="443.4,-630.44 447.91,-620.85 438.41,-625.54 443.4,-630.44"/>
</g>
<!-- smef_core_ir_materialize -->
<g id="node5" class="node">
<title>smef_core_ir_materialize</title><style>.edge>path:hover{stroke-width:8}</style>
<ellipse fill="#303091" stroke="black" cx="152.6" cy="-198.16" rx="50.56" ry="41.72"/>
<text xml:space="preserve" text-anchor="middle" x="152.6" y="-214.16" font-family="Helvetica,sans-Serif" font-size="10.00" fill="#ffffff">smef.</text>
<text xml:space="preserve" text-anchor="middle" x="152.6" y="-201.41" font-family="Helvetica,sans-Serif" font-size="10.00" fill="#ffffff">core.</text>
<text xml:space="preserve" text-anchor="middle" x="152.6" y="-188.66" font-family="Helvetica,sans-Serif" font-size="10.00" fill="#ffffff">ir.</text>
<text xml:space="preserve" text-anchor="middle" x="152.6" y="-175.91" font-family="Helvetica,sans-Serif" font-size="10.00" fill="#ffffff">materialize</text>
</g>
<!-- numpy&#45;&gt;smef_core_ir_materialize -->
<g id="edge2" class="edge">
<title>numpy&#45;&gt;smef_core_ir_materialize</title><style>.edge>path:hover{stroke-width:8}</style>
<path fill="none" stroke="black" d="M430.34,-846.7C437.63,-828.63 446.73,-799.12 441.6,-773.6"/>
<path fill="none" stroke="black" d="M441.6,-772.6C437.09,-749.45 417.48,-754.9 402.6,-736.6 392.24,-723.85 392.87,-718.46 383.6,-704.9"/>
<path fill="none" stroke="black" d="M383.6,-702.9C307.94,-592.2 180.31,-733.95 89.6,-635.19 53.33,-595.7 83.27,-568.3 72.6,-515.75"/>
<path fill="none" stroke="black" d="M72.6,-514.75C65.32,-487.61 33.65,-503.65 20.6,-478.75 -22.01,-397.42 7.89,-351.75 59.6,-275.88 71.34,-258.66 88.02,-243.23 104.01,-230.8"/>
<polygon fill="#f90606" stroke="black" points="105.68,-233.92 111.58,-225.12 101.48,-228.32 105.68,-233.92"/>
</g>
<!-- smef_core_ir_terms -->
<g id="node7" class="node">
<title>smef_core_ir_terms</title><style>.edge>path:hover{stroke-width:8}</style>
<ellipse fill="#3333cc" stroke="black" cx="354.6" cy="-593.47" rx="31.47" ry="41.72"/>
<text xml:space="preserve" text-anchor="middle" x="354.6" y="-609.47" font-family="Helvetica,sans-Serif" font-size="10.00" fill="#ffffff">smef.</text>
<text xml:space="preserve" text-anchor="middle" x="354.6" y="-596.72" font-family="Helvetica,sans-Serif" font-size="10.00" fill="#ffffff">core.</text>
<text xml:space="preserve" text-anchor="middle" x="354.6" y="-583.97" font-family="Helvetica,sans-Serif" font-size="10.00" fill="#ffffff">ir.</text>
<text xml:space="preserve" text-anchor="middle" x="354.6" y="-571.22" font-family="Helvetica,sans-Serif" font-size="10.00" fill="#ffffff">terms</text>
</g>
<!-- numpy&#45;&gt;smef_core_ir_terms -->
<g id="edge3" class="edge">
<title>numpy&#45;&gt;smef_core_ir_terms</title><style>.edge>path:hover{stroke-width:8}</style>
<path fill="none" stroke="black" d="M383.6,-702.9C372.36,-686.23 365.47,-665.39 361.25,-646.44"/>
<polygon fill="#f90606" stroke="black" points="364.7,-645.85 359.3,-636.74 357.83,-647.23 364.7,-645.85"/>
</g>
<!-- smef_core_model_protocols -->
<g id="node9" class="node">
<title>smef_core_model_protocols</title><style>.edge>path:hover{stroke-width:8}</style>
<ellipse fill="#2828a3" stroke="black" cx="72.6" cy="-437.04" rx="43.13" ry="41.72"/>
<text xml:space="preserve" text-anchor="middle" x="72.6" y="-453.04" font-family="Helvetica,sans-Serif" font-size="10.00" fill="#ffffff">smef.</text>
<text xml:space="preserve" text-anchor="middle" x="72.6" y="-440.29" font-family="Helvetica,sans-Serif" font-size="10.00" fill="#ffffff">core.</text>
<text xml:space="preserve" text-anchor="middle" x="72.6" y="-427.54" font-family="Helvetica,sans-Serif" font-size="10.00" fill="#ffffff">model.</text>
<text xml:space="preserve" text-anchor="middle" x="72.6" y="-414.79" font-family="Helvetica,sans-Serif" font-size="10.00" fill="#ffffff">protocols</text>
</g>
<!-- numpy&#45;&gt;smef_core_model_protocols -->
<g id="edge4" class="edge">
<title>numpy&#45;&gt;smef_core_model_protocols</title><style>.edge>path:hover{stroke-width:8}</style>
<path fill="none" stroke="black" d="M72.6,-514.75C71.02,-506.95 70.17,-498.6 69.81,-490.39"/>
<polygon fill="#f90606" stroke="black" points="73.31,-490.39 69.62,-480.46 66.31,-490.53 73.31,-490.39"/>
</g>
<!-- smef_core_sim_audit -->
<g id="node10" class="node">
<title>smef_core_sim_audit</title><style>.edge>path:hover{stroke-width:8}</style>
<ellipse fill="#404096" stroke="black" cx="285.6" cy="-317.6" rx="30.41" ry="41.72"/>
<text xml:space="preserve" text-anchor="middle" x="285.6" y="-333.6" font-family="Helvetica,sans-Serif" font-size="10.00" fill="#ffffff">smef.</text>
<text xml:space="preserve" text-anchor="middle" x="285.6" y="-320.85" font-family="Helvetica,sans-Serif" font-size="10.00" fill="#ffffff">core.</text>
<text xml:space="preserve" text-anchor="middle" x="285.6" y="-308.1" font-family="Helvetica,sans-Serif" font-size="10.00" fill="#ffffff">sim.</text>
<text xml:space="preserve" text-anchor="middle" x="285.6" y="-295.35" font-family="Helvetica,sans-Serif" font-size="10.00" fill="#ffffff">audit</text>
</g>
<!-- numpy&#45;&gt;smef_core_sim_audit -->
<g id="edge5" class="edge">
<title>numpy&#45;&gt;smef_core_sim_audit</title><style>.edge>path:hover{stroke-width:8}</style>
<path fill="none" stroke="black" d="M383.6,-702.9C359.26,-667.5 333.02,-674.01 314.6,-635.19 273.81,-549.23 274.8,-435.47 279.81,-370.33"/>
<polygon fill="#f90606" stroke="black" points="283.27,-370.91 280.62,-360.65 276.3,-370.32 283.27,-370.91"/>
</g>
<!-- smef_core_sim_compile -->
<g id="node11" class="node">
<title>smef_core_sim_compile</title><style>.edge>path:hover{stroke-width:8}</style>
<ellipse fill="#343479" stroke="black" cx="152.6" cy="-41.72" rx="38.89" ry="41.72"/>
<text xml:space="preserve" text-anchor="middle" x="152.6" y="-57.72" font-family="Helvetica,sans-Serif" font-size="10.00" fill="#ffffff">smef.</text>
<text xml:space="preserve" text-anchor="middle" x="152.6" y="-44.97" font-family="Helvetica,sans-Serif" font-size="10.00" fill="#ffffff">core.</text>
<text xml:space="preserve" text-anchor="middle" x="152.6" y="-32.22" font-family="Helvetica,sans-Serif" font-size="10.00" fill="#ffffff">sim.</text>
<text xml:space="preserve" text-anchor="middle" x="152.6" y="-19.47" font-family="Helvetica,sans-Serif" font-size="10.00" fill="#ffffff">compile</text>
</g>
<!-- numpy&#45;&gt;smef_core_sim_compile -->
<g id="edge6" class="edge">
<title>numpy&#45;&gt;smef_core_sim_compile</title><style>.edge>path:hover{stroke-width:8}</style>
<path fill="none" stroke="black" d="M383.6,-702.9C374.4,-689.29 389.71,-681.37 402.6,-671.19 444.3,-638.27 485.19,-678.05 516.6,-635.19 538.52,-605.28 521.85,-588.47 516.6,-551.75 501.34,-444.9 431.84,-425.23 448.6,-318.6"/>
</g>
<!-- smef_core_sim_types -->
<g id="node13" class="node">
<title>smef_core_sim_types</title><style>.edge>path:hover{stroke-width:8}</style>
<ellipse fill="#2020b6" stroke="black" cx="371.6" cy="-437.04" rx="30.41" ry="41.72"/>
<text xml:space="preserve" text-anchor="middle" x="371.6" y="-453.04" font-family="Helvetica,sans-Serif" font-size="10.00" fill="#ffffff">smef.</text>
<text xml:space="preserve" text-anchor="middle" x="371.6" y="-440.29" font-family="Helvetica,sans-Serif" font-size="10.00" fill="#ffffff">core.</text>
<text xml:space="preserve" text-anchor="middle" x="371.6" y="-427.54" font-family="Helvetica,sans-Serif" font-size="10.00" fill="#ffffff">sim.</text>
<text xml:space="preserve" text-anchor="middle" x="371.6" y="-414.79" font-family="Helvetica,sans-Serif" font-size="10.00" fill="#ffffff">types</text>
</g>
<!-- numpy&#45;&gt;smef_core_sim_types -->
<g id="edge7" class="edge">
<title>numpy&#45;&gt;smef_core_sim_types</title><style>.edge>path:hover{stroke-width:8}</style>
<path fill="none" stroke="black" d="M383.6,-702.9C366.55,-677.63 392.15,-665.58 394.6,-635.19 397.59,-598.23 398.3,-588.65 394.6,-551.75 392.5,-530.73 388.26,-507.84 383.98,-488.14"/>
<polygon fill="#f90606" stroke="black" points="387.41,-487.42 381.81,-478.43 380.58,-488.95 387.41,-487.42"/>
</g>
<!-- smef_core_types -->
<g id="node14" class="node">
<title>smef_core_types</title><style>.edge>path:hover{stroke-width:8}</style>
<ellipse fill="#4040c0" stroke="black" cx="128.6" cy="-593.47" rx="30.41" ry="32.7"/>
<text xml:space="preserve" text-anchor="middle" x="128.6" y="-603.1" font-family="Helvetica,sans-Serif" font-size="10.00" fill="#ffffff">smef.</text>
<text xml:space="preserve" text-anchor="middle" x="128.6" y="-590.35" font-family="Helvetica,sans-Serif" font-size="10.00" fill="#ffffff">core.</text>
<text xml:space="preserve" text-anchor="middle" x="128.6" y="-577.6" font-family="Helvetica,sans-Serif" font-size="10.00" fill="#ffffff">types</text>
</g>
<!-- numpy&#45;&gt;smef_core_types -->
<g id="edge8" class="edge">
<title>numpy&#45;&gt;smef_core_types</title><style>.edge>path:hover{stroke-width:8}</style>
<path fill="none" stroke="black" d="M383.6,-702.9C327.56,-619.85 254.03,-687.53 168.6,-635.19 164.52,-632.69 160.54,-629.68 156.79,-626.44"/>
<polygon fill="#f90606" stroke="black" points="159.26,-623.95 149.58,-619.64 154.46,-629.05 159.26,-623.95"/>
</g>
<!-- smef_core_units -->
<g id="node15" class="node">
<title>smef_core_units</title><style>.edge>path:hover{stroke-width:8}</style>
<ellipse fill="#4949ac" stroke="black" cx="441.6" cy="-703.9" rx="30.41" ry="32.7"/>
<text xml:space="preserve" text-anchor="middle" x="441.6" y="-713.52" font-family="Helvetica,sans-Serif" font-size="10.00" fill="#ffffff">smef.</text>
<text xml:space="preserve" text-anchor="middle" x="441.6" y="-700.77" font-family="Helvetica,sans-Serif" font-size="10.00" fill="#ffffff">core.</text>
<text xml:space="preserve" text-anchor="middle" x="441.6" y="-688.02" font-family="Helvetica,sans-Serif" font-size="10.00" fill="#ffffff">units</text>
</g>
<!-- numpy&#45;&gt;smef_core_units -->
<g id="edge9" class="edge">
<title>numpy&#45;&gt;smef_core_units</title><style>.edge>path:hover{stroke-width:8}</style>
<path fill="none" stroke="black" d="M441.6,-772.6C440.03,-764.77 439.29,-756.32 439.05,-748.14"/>
<polygon fill="#f90606" stroke="black" points="442.56,-748.35 439.03,-738.36 435.56,-748.37 442.56,-748.35"/>
</g>
<!-- pint -->
<g id="node2" class="node">
<title>pint</title><style>.edge>path:hover{stroke-width:8}</style>
<ellipse fill="#40c040" stroke="black" cx="497.6" cy="-864.6" rx="27" ry="18"/>
<text xml:space="preserve" text-anchor="middle" x="497.6" y="-861.48" font-family="Helvetica,sans-Serif" font-size="10.00" fill="#000000">pint</text>
</g>
<!-- pint&#45;&gt;smef_core_units -->
<g id="edge10" class="edge">
<title>pint&#45;&gt;smef_core_units</title><style>.edge>path:hover{stroke-width:8}</style>
<path fill="none" stroke="black" d="M491.61,-846.62C483.17,-822.69 467.52,-778.34 455.97,-745.6"/>
<polygon fill="#40c040" stroke="black" points="459.35,-744.68 452.72,-736.41 452.75,-747.01 459.35,-744.68"/>
</g>
<!-- smef_core_ir -->
<g id="node3" class="node">
<title>smef_core_ir</title><style>.edge>path:hover{stroke-width:8}</style>
<ellipse fill="#2222e7" stroke="black" cx="222.6" cy="-593.47" rx="45.12" ry="18"/>
<text xml:space="preserve" text-anchor="middle" x="222.6" y="-590.35" font-family="Helvetica,sans-Serif" font-size="10.00" fill="#ffffff">smef.core.ir</text>
</g>
<!-- smef_core_ir&#45;&gt;smef_core_model_protocols -->
<g id="edge11" class="edge">
<title>smef_core_ir&#45;&gt;smef_core_model_protocols</title><style>.edge>path:hover{stroke-width:8}</style>
<path fill="none" stroke="black" d="M227.71,-575.12C231.5,-559.17 234.86,-535.13 227.6,-515.75"/>
<path fill="none" stroke="black" d="M227.6,-514.75C210.59,-469.34 167.15,-502.02 124.6,-478.75 120.97,-476.77 117.32,-474.53 113.75,-472.15"/>
<polygon fill="#2222e7" stroke="black" points="115.9,-469.39 105.71,-466.48 111.86,-475.11 115.9,-469.39"/>
</g>
<!-- smef_core_ir&#45;&gt;smef_core_sim_compile -->
<g id="edge12" class="edge">
<title>smef_core_ir&#45;&gt;smef_core_sim_compile</title><style>.edge>path:hover{stroke-width:8}</style>
<path fill="none" stroke="black" d="M227.6,-514.75C212.31,-473.93 200.79,-352.96 227.6,-318.6"/>
</g>
<!-- smef_core_ir&#45;&gt;smef_core_sim_types -->
<g id="edge13" class="edge">
<title>smef_core_ir&#45;&gt;smef_core_sim_types</title><style>.edge>path:hover{stroke-width:8}</style>
<path fill="none" stroke="black" d="M238.27,-576.24C262.2,-551.43 308.39,-503.55 339.61,-471.2"/>
<polygon fill="#2222e7" stroke="black" points="342.12,-473.64 346.54,-464.01 337.08,-468.78 342.12,-473.64"/>
</g>
<!-- smef_core_ir_materialize&#45;&gt;smef_core_sim_compile -->
<g id="edge14" class="edge">
<title>smef_core_ir_materialize&#45;&gt;smef_core_sim_compile</title><style>.edge>path:hover{stroke-width:8}</style>
<path fill="none" stroke="black" d="M158.12,-156.3C158.27,-144.4 156.97,-131.6 152.6,-120.44"/>
</g>
<!-- smef_core_ir_ops -->
<g id="node6" class="node">
<title>smef_core_ir_ops</title><style>.edge>path:hover{stroke-width:8}</style>
<ellipse fill="#4747c2" stroke="black" cx="169.6" cy="-317.6" rx="30.41" ry="41.72"/>
<text xml:space="preserve" text-anchor="middle" x="169.6" y="-333.6" font-family="Helvetica,sans-Serif" font-size="10.00" fill="#ffffff">smef.</text>
<text xml:space="preserve" text-anchor="middle" x="169.6" y="-320.85" font-family="Helvetica,sans-Serif" font-size="10.00" fill="#ffffff">core.</text>
<text xml:space="preserve" text-anchor="middle" x="169.6" y="-308.1" font-family="Helvetica,sans-Serif" font-size="10.00" fill="#ffffff">ir.</text>
<text xml:space="preserve" text-anchor="middle" x="169.6" y="-295.35" font-family="Helvetica,sans-Serif" font-size="10.00" fill="#ffffff">ops</text>
</g>
<!-- smef_core_ir_ops&#45;&gt;smef_core_ir_materialize -->
<g id="edge15" class="edge">
<title>smef_core_ir_ops&#45;&gt;smef_core_ir_materialize</title><style>.edge>path:hover{stroke-width:8}</style>
<path fill="none" stroke="black" d="M163.75,-276.18C162.59,-268.15 161.36,-259.62 160.15,-251.26"/>
<polygon fill="#4747c2" stroke="black" points="163.64,-250.94 158.74,-241.54 156.71,-251.94 163.64,-250.94"/>
</g>
<!-- smef_core_ir_terms&#45;&gt;smef_core_model_protocols -->
<g id="edge16" class="edge">
<title>smef_core_ir_terms&#45;&gt;smef_core_model_protocols</title><style>.edge>path:hover{stroke-width:8}</style>
<path fill="none" stroke="black" d="M371.58,-557.81C375.87,-544.26 377.73,-528.85 371.6,-515.75"/>
<path fill="none" stroke="black" d="M371.6,-514.75C348.11,-464.51 175.6,-500.59 124.6,-478.75 120.74,-477.1 116.92,-475.08 113.2,-472.85"/>
<polygon fill="#3333cc" stroke="black" points="115.19,-469.96 104.92,-467.33 111.3,-475.79 115.19,-469.96"/>
</g>
<!-- smef_core_ir_terms&#45;&gt;smef_core_sim_types -->
<g id="edge17" class="edge">
<title>smef_core_ir_terms&#45;&gt;smef_core_sim_types</title><style>.edge>path:hover{stroke-width:8}</style>
<path fill="none" stroke="black" d="M371.6,-514.75C367.96,-506.95 366.15,-498.2 365.49,-489.47"/>
<polygon fill="#3333cc" stroke="black" points="368.99,-489.52 365.26,-479.6 361.99,-489.68 368.99,-489.52"/>
</g>
<!-- smef_core_model -->
<g id="node8" class="node">
<title>smef_core_model</title><style>.edge>path:hover{stroke-width:8}</style>
<ellipse fill="#3b3bce" stroke="black" cx="166.6" cy="-437.04" rx="33.06" ry="32.7"/>
<text xml:space="preserve" text-anchor="middle" x="166.6" y="-446.66" font-family="Helvetica,sans-Serif" font-size="10.00" fill="#ffffff">smef.</text>
<text xml:space="preserve" text-anchor="middle" x="166.6" y="-433.91" font-family="Helvetica,sans-Serif" font-size="10.00" fill="#ffffff">core.</text>
<text xml:space="preserve" text-anchor="middle" x="166.6" y="-421.16" font-family="Helvetica,sans-Serif" font-size="10.00" fill="#ffffff">model</text>
</g>
<!-- smef_core_model&#45;&gt;smef_core_ir_materialize -->
<g id="edge18" class="edge">
<title>smef_core_model&#45;&gt;smef_core_ir_materialize</title><style>.edge>path:hover{stroke-width:8}</style>
<path fill="none" stroke="black" d="M149.98,-408.32C142.46,-394.18 134.41,-376.4 130.6,-359.32 122.53,-323.12 125.44,-312.6 130.6,-275.88 131.82,-267.19 133.79,-258.12 136.05,-249.37"/>
<polygon fill="#3b3bce" stroke="black" points="139.35,-250.55 138.64,-239.98 132.6,-248.69 139.35,-250.55"/>
</g>
<!-- smef_core_model&#45;&gt;smef_core_sim_compile -->
<g id="edge19" class="edge">
<title>smef_core_model&#45;&gt;smef_core_sim_compile</title><style>.edge>path:hover{stroke-width:8}</style>
<path fill="none" stroke="black" d="M182.6,-407.85C190.63,-393.45 200.37,-375.57 208.6,-359.32 217.63,-341.5 215.32,-334.34 227.6,-318.6"/>
<path fill="none" stroke="black" d="M227.6,-316.6C239.89,-300.85 231.97,-289.47 246.6,-275.88 316.96,-210.52 475.42,-291.37 448.6,-199.16"/>
<path fill="none" stroke="black" d="M448.6,-197.16C429.63,-131.91 177.38,-183.71 152.6,-120.44"/>
</g>
<!-- smef_core_model_protocols&#45;&gt;smef_core_ir_materialize -->
<g id="edge20" class="edge">
<title>smef_core_model_protocols&#45;&gt;smef_core_ir_materialize</title><style>.edge>path:hover{stroke-width:8}</style>
<path fill="none" stroke="black" d="M73.6,-316.6C78.37,-287.75 95.78,-260.34 113.04,-239.27"/>
<polygon fill="#2828a3" stroke="black" points="115.59,-241.68 119.41,-231.8 110.26,-237.14 115.59,-241.68"/>
</g>
<!-- smef_core_model_protocols&#45;&gt;smef_core_sim_compile -->
<g id="edge21" class="edge">
<title>smef_core_model_protocols&#45;&gt;smef_core_sim_compile</title><style>.edge>path:hover{stroke-width:8}</style>
<path fill="none" stroke="black" d="M69.85,-395.01C69.11,-372.33 69.45,-343.74 73.6,-318.6"/>
<path fill="none" stroke="black" d="M73.6,-316.6C85.3,-245.88 53.67,-216.62 92.6,-156.44 109.5,-130.33 163.94,-149.4 152.6,-120.44"/>
<path fill="none" stroke="black" d="M152.6,-119.44C149.49,-111.71 147.89,-103.18 147.27,-94.69"/>
<polygon fill="#2828a3" stroke="black" points="150.77,-94.65 147,-84.75 143.77,-94.84 150.77,-94.65"/>
</g>
<!-- smef_core_sim_protocols -->
<g id="node12" class="node">
<title>smef_core_sim_protocols</title><style>.edge>path:hover{stroke-width:8}</style>
<ellipse fill="#43439d" stroke="black" cx="377.6" cy="-317.6" rx="43.13" ry="41.72"/>
<text xml:space="preserve" text-anchor="middle" x="377.6" y="-333.6" font-family="Helvetica,sans-Serif" font-size="10.00" fill="#ffffff">smef.</text>
<text xml:space="preserve" text-anchor="middle" x="377.6" y="-320.85" font-family="Helvetica,sans-Serif" font-size="10.00" fill="#ffffff">core.</text>
<text xml:space="preserve" text-anchor="middle" x="377.6" y="-308.1" font-family="Helvetica,sans-Serif" font-size="10.00" fill="#ffffff">sim.</text>
<text xml:space="preserve" text-anchor="middle" x="377.6" y="-295.35" font-family="Helvetica,sans-Serif" font-size="10.00" fill="#ffffff">protocols</text>
</g>
<!-- smef_core_sim_types&#45;&gt;smef_core_sim_audit -->
<g id="edge22" class="edge">
<title>smef_core_sim_types&#45;&gt;smef_core_sim_audit</title><style>.edge>path:hover{stroke-width:8}</style>
<path fill="none" stroke="black" d="M350.12,-406.7C339.06,-391.6 325.44,-372.99 313.57,-356.78"/>
<polygon fill="#2020b6" stroke="black" points="316.44,-354.78 307.7,-348.78 310.79,-358.91 316.44,-354.78"/>
</g>
<!-- smef_core_sim_types&#45;&gt;smef_core_sim_compile -->
<g id="edge23" class="edge">
<title>smef_core_sim_types&#45;&gt;smef_core_sim_compile</title><style>.edge>path:hover{stroke-width:8}</style>
<path fill="none" stroke="black" d="M396.15,-412.2C416.44,-390.2 442.81,-355.45 448.6,-318.6"/>
<path fill="none" stroke="black" d="M448.6,-316.6C456.71,-265.03 463.18,-249.28 448.6,-199.16"/>
</g>
<!-- smef_core_sim_types&#45;&gt;smef_core_sim_protocols -->
<g id="edge24" class="edge">
<title>smef_core_sim_types&#45;&gt;smef_core_sim_protocols</title><style>.edge>path:hover{stroke-width:8}</style>
<path fill="none" stroke="black" d="M373.7,-394.96C374.1,-387.14 374.52,-378.85 374.94,-370.74"/>
<polygon fill="#2020b6" stroke="black" points="378.42,-371.13 375.44,-360.96 371.43,-370.77 378.42,-371.13"/>
</g>
<!-- smef_core_types&#45;&gt;smef_core_model_protocols -->
<g id="edge25" class="edge">
<title>smef_core_types&#45;&gt;smef_core_model_protocols</title><style>.edge>path:hover{stroke-width:8}</style>
<path fill="none" stroke="black" d="M117.81,-562.7C110.08,-541.39 99.51,-512.23 90.53,-487.46"/>
<polygon fill="#4040c0" stroke="black" points="93.87,-486.43 87.17,-478.22 87.29,-488.81 93.87,-486.43"/>
</g>
</g>
</svg>
